<?xml version="1.0" encoding="UTF-8" standalone="no" ?>
<!DOCTYPE svg PUBLIC "-//W3C//DTD SVG 1.1//EN" "http://www.w3.org/Graphics/SVG/1.1/DTD/svg11.dtd">
<svg xmlns="http://www.w3.org/2000/svg" xmlns:xlink="http://www.w3.org/1999/xlink" version="1.1" width="1024" height="720" viewBox="0 0 1024 720" xml:space="preserve">
<desc>Created with Fabric.js 4.6.0</desc>
<defs>
</defs>
<g transform="matrix(1.49 0 0 1.49 514.42 312.56)" id="miuov9Uwcc1r4Mokdxzgv"  >
<path style="stroke: rgb(222,8,21); stroke-width: 7; stroke-dasharray: none; stroke-linecap: butt; stroke-dashoffset: 0; stroke-linejoin: miter; stroke-miterlimit: 4; fill: none; fill-rule: nonzero; opacity: 1;" vector-effect="non-scaling-stroke"  transform=" translate(0, 0)" d="M -339.13826 -14.34075 C -338.01966 -0.80579 -337.48689 0.32287 -330.91949 3.7750100000000018 C -310.65873 14.425030000000001 -304.3717 9.023600000000002 -274.71696 5.788920000000002 C -245.06220999999996 2.554240000000002 -247.14378999999997 -0.579139999999998 -228.77776999999998 1.0635700000000021 C -226.43070999999998 1.273500000000002 -226.23252999999997 1.4573200000000022 -225.08255999999997 1.959230000000002 L -225.08255999999997 1.959230000000002 C -209.32347 8.837330000000001 -194.92337999999998 18.481830000000002 -182.56405999999998 30.436100000000003 L -173.67184999999998 39.03689 C -173.67184999999998 39.03689 -164.73748999999998 46.7213 -151.79352999999998 60.03528 C -143.59545999999997 68.46770000000001 -133.78900999999996 79.15832 -123.62535999999997 91.58511 C -96.87232999999998 124.29518999999999 -65.19746999999998 169.02709 -57.27654999999997 175.06864000000002 C -41.59515999999997 187.02936000000003 -22.12704999999997 182.36260000000001 -7.03213999999997 182.90815 C 57.846950000000035 185.25300000000001 53.79043000000003 156.91388 53.79043000000003 156.91388 L 45.84211000000003 128.90258 C 45.84211000000003 128.90258 39.66229000000003 108.39871 33.255030000000026 103.92506 C 17.805430000000026 93.13788 17.577810000000028 72.169 23.644980000000025 68.83356 C 31.888560000000027 64.30164 61.753170000000026 29.333610000000007 76.25485000000003 29.465300000000006 C 90.75653000000003 29.596990000000005 197.35252000000003 32.957640000000005 206.84854000000004 27.365560000000006 C 216.34456000000003 21.773480000000006 237.57185000000004 -23.429159999999992 237.57185000000004 -23.429159999999992 C 237.57185000000004 -23.429159999999992 267.02471 -63.54841999999999 268.55993000000007 -70.78822 C 271.81818000000004 -86.15344999999999 215.47361000000006 -137.75851 254.98487000000006 -149.83139 C 294.4961200000001 -161.90427 339.13828000000007 -183.36113 339.13828000000007 -183.36113" stroke-linecap="round" />
</g>
<g transform="matrix(1.49 0 0 1.49 656 539.84)" id="VgKioRHV9DJCdJg0rwW9L"  >
<path style="stroke: rgb(253,196,34); stroke-width: 7; stroke-dasharray: none; stroke-linecap: butt; stroke-dashoffset: 0; stroke-linejoin: miter; stroke-miterlimit: 4; fill: rgb(255,255,255); fill-opacity: 0; fill-rule: nonzero; opacity: 1;" vector-effect="non-scaling-stroke"  transform=" translate(0, 0)" d="M -195.94565 82.994 L -206.42284 52.809709999999995 C -207.41195000000002 49.960139999999996 -207.11653 46.821639999999995 -205.61306000000002 44.206689999999995 C -202.79096 39.298269999999995 -199.48844000000003 33.53554999999999 -191.5012 34.44837 C -181.47255 35.5945 -146.94851 35.128519999999995 -147.52158000000003 25.672939999999997 C -148.09465000000003 16.217349999999996 -155.83104000000003 -25.88852 -147.52158000000003 -29.040380000000006 C -139.21212000000003 -32.192240000000005 -110.55883000000003 -52.822610000000005 -109.69923000000003 -66.00313 C -108.83963000000003 -79.18365 -96.80525000000003 -95.22949 -80.75940000000003 -94.36989 C -64.71355000000003 -93.51029 -65.85969000000003 -72.02032 -55.25797000000003 -73.45298 C -44.65625000000003 -74.88564 -28.78059000000003 -99.99727999999999 -14.46797000000003 -93.59427 C -0.15535000000002874 -87.19126 -7.68831000000003 -67.41725 12.08569999999997 -60.26094 C 31.85970999999997 -53.10463 92.25196999999997 -23.038419999999995 105.04266999999997 -21.100429999999996 C 117.83336999999997 -19.162449999999996 151.24313999999998 -23.584169999999997 154.21553999999998 -12.968449999999995 C 157.18793999999997 -2.3527399999999954 154.86543999999998 20.426120000000004 163.71961 20.426120000000004 C 172.57378 20.426120000000004 194.44878 11.832370000000004 197.05293999999998 21.728200000000005 C 199.65711 31.624030000000005 212.15711 43.082370000000004 204.60501999999997 66.78028 C 197.05293999999998 90.4782 196.23542999999998 94.63733 196.23542999999998 94.63733" stroke-linecap="round" />
</g>
</svg>